<svg width="24" height="19" viewBox="0 0 24 19" fill="none" xmlns="http://www.w3.org/2000/svg">
<path d="M7.2582 17.5694L0.597656 10.5968C0.199219 10.2116 0 9.68701 0 9.10927C0 8.53154 0.199219 8.01357 0.597656 7.62177L7.2582 0.622553C8.04844 -0.207525 9.33672 -0.207525 10.127 0.622553C10.9172 1.45263 10.9172 2.79404 10.127 3.62412L6.92617 6.97099L21.3363 6.97099C22.4652 6.97099 23.375 7.9206 23.375 9.09599C23.375 10.2714 22.4652 11.221 21.343 11.221L6.93281 11.221L10.1336 14.5679C10.9238 15.3979 10.9238 16.7393 10.1336 17.5694C9.33672 18.3995 8.05508 18.3995 7.2582 17.5694Z" fill="#111111"/>
</svg>
