<svg width="24" height="20" viewBox="0 0 24 20" fill="none" xmlns="http://www.w3.org/2000/svg">
<path d="M16.4293 1.52657L23.0898 8.49922C23.4883 8.88438 23.6875 9.40899 23.6875 9.98672C23.6875 10.5645 23.4883 11.0824 23.0898 11.4742L16.4293 18.4734C15.6391 19.3035 14.3508 19.3035 13.5605 18.4734C12.7703 17.6434 12.7703 16.302 13.5605 15.4719L16.7613 12.125H2.35117C1.22227 12.125 0.3125 11.1754 0.3125 10C0.3125 8.82461 1.22227 7.875 2.34453 7.875H16.7547L13.5539 4.52813C12.7637 3.69805 12.7637 2.35664 13.5539 1.52657C14.3508 0.696487 15.6324 0.696487 16.4293 1.52657Z" fill="black"/>
</svg>
