<svg width="17" height="17" viewBox="0 0 17 17" fill="none" xmlns="http://www.w3.org/2000/svg">
<path d="M9.90625 7.4375C10.6417 7.4375 11.3607 7.2194 11.9723 6.81078C12.5838 6.40216 13.0605 5.82137 13.3419 5.14186C13.6234 4.46234 13.697 3.71463 13.5535 2.99326C13.4101 2.27189 13.0559 1.60927 12.5358 1.0892C12.0157 0.569122 11.3531 0.214945 10.6317 0.0714564C9.91038 -0.0720324 9.16266 0.00161127 8.48315 0.283075C7.80363 0.564538 7.22284 1.04118 6.81422 1.65272C6.4056 2.26427 6.1875 2.98325 6.1875 3.71875C6.1875 4.70503 6.5793 5.6509 7.2767 6.3483C7.9741 7.04571 8.91998 7.4375 9.90625 7.4375ZM9.90625 8.5C7.60129 8.5 3 9.92375 3 12.75V14.875H16.8125V12.75C16.8125 9.92375 12.2112 8.5 9.90625 8.5Z" fill="#EA808E"/>
</svg>
