<svg width="23" height="23" viewBox="0 0 23 23" fill="none" xmlns="http://www.w3.org/2000/svg">
<path d="M13.4023 10.0625C14.3974 10.0625 15.3702 9.76742 16.1976 9.21458C17.0249 8.66174 17.6698 7.87597 18.0506 6.95663C18.4314 6.03729 18.5311 5.02567 18.3369 4.0497C18.1428 3.07374 17.6636 2.17725 16.96 1.47362C16.2563 0.769988 15.3599 0.290808 14.3839 0.0966763C13.4079 -0.0974556 12.3963 0.00217996 11.477 0.382983C10.5576 0.763787 9.77185 1.40865 9.21901 2.23604C8.66617 3.06342 8.37109 4.03616 8.37109 5.03125C8.37109 6.36562 8.90117 7.64534 9.84471 8.58888C10.7883 9.53242 12.068 10.0625 13.4023 10.0625ZM13.4023 11.5C10.2839 11.5 4.05859 13.4263 4.05859 17.25V20.125H22.7461V17.25C22.7461 13.4263 16.5208 11.5 13.4023 11.5Z" fill="#FCCF00"/>
</svg>
