<svg width="17" height="17" viewBox="0 0 17 17" fill="none" xmlns="http://www.w3.org/2000/svg">
<g clip-path="url(#clip0_10_480)">
<path d="M16.4156 5.63125C16.3625 5.41875 16.15 5.3125 15.9375 5.3125H11.1563L8.97814 0.85C8.87189 0.6375 8.71252 0.53125 8.50002 0.53125C8.28752 0.53125 8.12814 0.6375 8.02189 0.85L5.84377 5.3125H1.06252C0.850016 5.3125 0.637516 5.41875 0.584391 5.63125C0.478141 5.84375 0.531266 6.05625 0.690641 6.21562L4.19689 10.2531L2.65627 15.7781C2.60314 15.9906 2.65627 16.2031 2.81564 16.3094C2.97502 16.4156 3.18752 16.4688 3.40002 16.3625L8.50002 13.9188L13.6 16.3625C13.6531 16.4688 13.7063 16.4688 13.8125 16.4688C14.0781 16.4688 14.3438 16.2563 14.3438 15.9375C14.3438 15.8313 14.3438 15.7781 14.2906 15.6719L12.8031 10.2L16.3094 6.1625C16.4688 6.05625 16.5219 5.79063 16.4156 5.63125Z" fill="#44AF35"/>
</g>
<defs>
<clipPath id="clip0_10_480">
<rect width="17" height="17" fill="white"/>
</clipPath>
</defs>
</svg>
