<svg width="15" height="16" viewBox="0 0 15 16" fill="none" xmlns="http://www.w3.org/2000/svg">
<path d="M14.7607 5.1C14.7114 4.8875 14.5139 4.78125 14.3165 4.78125H9.87405L7.85028 0.31875C7.75156 0.10625 7.60348 0 7.40604 0C7.2086 0 7.06051 0.10625 6.96179 0.31875L4.93802 4.78125H0.495602C0.298161 4.78125 0.10072 4.8875 0.0513602 5.1C-0.0473602 5.3125 0.00199997 5.525 0.150081 5.68437L3.40786 9.72187L1.97641 15.2469C1.92705 15.4594 1.97641 15.6719 2.12449 15.7781C2.27257 15.8844 2.47001 15.9375 2.66745 15.8312L7.40604 13.3875L12.1446 15.8312C12.194 15.9375 12.2433 15.9375 12.3421 15.9375C12.5889 15.9375 12.8357 15.725 12.8357 15.4062C12.8357 15.3 12.8357 15.2469 12.7863 15.1406L11.4042 9.66875L14.662 5.63125C14.8101 5.525 14.8594 5.25938 14.7607 5.1Z" fill="#A922E9"/>
</svg>
